/* XPM */
static char * rocket_16_xpm[] = {
"16 16 18 1",
" 	c None",
".	c #000000",
"+	c #FDAFAF",
"@	c #FF7474",
"#	c #FD6E6E",
"$	c #886565",
"%	c #8F8F8F",
"&	c #7D7D81",
"*	c #7C7C82",
"=	c #868686",
"-	c #8C8C8C",
";	c #539953",
">	c #818181",
",	c #58A558",
"'	c #65B765",
")	c #7A7A7A",
"!	c #68BB68",
"~	c #737373",
"                ",
"       ..       ",
"      .++.      ",
"     .@###.     ",
"     .@###.     ",
"      .$$.      ",
"      .%%.      ",
"      .&&.      ",
"      .**.      ",
"      .==.      ",
"     ..--..     ",
"    .;.>>.,.    ",
"   .';.)).,'.   ",
"   .!;.~~.,'.   ",
"   ..........   ",
"                "};
