/* XPM */
static char * rocket_24_xpm[] = {
"24 24 68 1",
" 	c None",
".	c #000000",
"+	c #210F0F",
"@	c #F58D8D",
"#	c #FDAFAF",
"$	c #F1A6A6",
"%	c #FC7777",
"&	c #FB6E6E",
"*	c #EF6868",
"=	c #E96E6E",
"-	c #FF7474",
";	c #FD6E6E",
">	c #F16868",
",	c #EC6B6B",
"'	c #130E0E",
")	c #7E6060",
"!	c #785B5B",
"~	c #0F0808",
"{	c #141414",
"]	c #888888",
"^	c #818181",
"/	c #0C0C0C",
"(	c #8C8C8C",
"_	c #858585",
":	c #0D0D0D",
"<	c #878787",
"[	c #808080",
"}	c #101011",
"|	c #6E6E78",
"1	c #686872",
"2	c #0A0A0B",
"3	c #111112",
"4	c #757579",
"5	c #6F6F73",
"6	c #0B0B0B",
"7	c #75757B",
"8	c #6F6F75",
"9	c #0B0B0C",
"0	c #121212",
"a	c #7E7E7E",
"b	c #787878",
"c	c #131313",
"d	c #7D7D7D",
"e	c #777777",
"f	c #0C0D0C",
"g	c #0B150B",
"h	c #727272",
"i	c #6C6C6C",
"j	c #0C170C",
"k	c #0D180D",
"l	c #539953",
"m	c #111111",
"n	c #6B6B6B",
"o	c #656565",
"p	c #58A558",
"q	c #0E190E",
"r	c #0E1A0E",
"s	c #5DAB5D",
"t	c #101010",
"u	c #676767",
"v	c #626262",
"w	c #65B765",
"x	c #0D190D",
"y	c #606060",
"z	c #646464",
"A	c #5F5F5F",
"B	c #0F0F0F",
"C	c #0E0E0E",
"                        ",
"           .            ",
"          +@+           ",
"         +##$+          ",
"        +%&&*=+         ",
"        +-;;>,+         ",
"         '))!~          ",
"         {]]^/          ",
"         {((_:          ",
"         {<<[:          ",
"         }||12          ",
"         34456          ",
"         37789          ",
"         }||12          ",
"         0aab/          ",
"         c__a:          ",
"         cddef          ",
"        g0hhi0j         ",
"       klmnnompq        ",
"      rsltuuvtpwx       ",
"      rsltooytpwx       ",
"      rsltzzAtpwx       ",
"      rkgBCCCBjqx       ",
"                        "};
